<?xml version="1.0" encoding="UTF-8"?>
<svg version="1.1" xmlns="http://www.w3.org/2000/svg" width="128" height="128">
<path d="M0 0 C1.2375 -0.03738281 2.475 -0.07476563 3.75 -0.11328125 C7 0.3125 7 0.3125 8.9375 2.33203125 C9.288125 2.98558594 9.63875 3.63914062 10 4.3125 C11.11375 3.61125 12.2275 2.91 13.375 2.1875 C17.83950213 -0.04475107 20.91035042 0.24009826 25.6640625 1.46875 C29.84579029 2.97920686 32.84737271 5.15987271 36 8.3125 C35.66306057 11.68189433 34.11180592 13.74160583 32 16.3125 C32.639375 16.60125 33.27875 16.89 33.9375 17.1875 C36 18.3125 36 18.3125 37 20.3125 C37.25 23.3125 37.25 23.3125 37 26.3125 C34 28.3125 34 28.3125 31 28.3125 C31.04125 29.09625 31.0825 29.88 31.125 30.6875 C31 33.3125 31 33.3125 29 35.3125 C27.01178687 35.71014263 25.01055661 36.05025349 23 36.3125 C25.03849601 38.37821628 27.0806475 40.44009264 29.125 42.5 C29.69476563 43.07814453 30.26453125 43.65628906 30.8515625 44.25195312 C38.56827873 52.26991372 38.56827873 52.26991372 49 55.3125 C51.9375 56.375 51.9375 56.375 54 57.3125 C54 58.3025 54 59.2925 54 60.3125 C53.34 60.3125 52.68 60.3125 52 60.3125 C52 60.9725 52 61.6325 52 62.3125 C48.12315913 63.50537411 45.08378077 64.3125 41 64.3125 C41.99 65.7975 41.99 65.7975 43 67.3125 C43 68.6325 43 69.9525 43 71.3125 C37.06 71.8075 37.06 71.8075 31 72.3125 C30.67 73.9625 30.34 75.6125 30 77.3125 C28.3125 80.125 28.3125 80.125 26 82.3125 C22.8125 82.6875 22.8125 82.6875 20 82.3125 C19.67 81.9825 19.34 81.6525 19 81.3125 C19 79.5625 19 77.8125 19 76.0625 C18.40264412 67.46263512 13.27985542 60.48956414 7.2109375 54.56640625 C6 53.3125 6 53.3125 6 51.3125 C4.35 50.6525 2.7 49.9925 1 49.3125 C1 50.3025 1 51.2925 1 52.3125 C-3.05682262 55.01704841 -6.24210884 54.73326588 -11 54.3125 C-14.5625 53.3125 -14.5625 53.3125 -17 52.3125 C-17 51.6525 -17 50.9925 -17 50.3125 C-17.66 50.3125 -18.32 50.3125 -19 50.3125 C-19.09796875 49.68601563 -19.1959375 49.05953125 -19.296875 48.4140625 C-19.44640625 47.59679687 -19.5959375 46.77953125 -19.75 45.9375 C-19.95882813 44.71933594 -19.95882813 44.71933594 -20.171875 43.4765625 C-20.80009753 41.16462296 -20.80009753 41.16462296 -22.90625 40.1796875 C-23.94265625 39.75042969 -23.94265625 39.75042969 -25 39.3125 C-28.84339434 35.81850514 -30.36416233 33.54899295 -30.6875 28.3125 C-30.49171088 24.60928858 -29.86416072 22.4590721 -27.375 19.6875 C-24.88029178 17.57293779 -24.0308858 17.31593176 -20.625 16.9375 C-19.325625 17.123125 -19.325625 17.123125 -18 17.3125 C-17.9175 16.6525 -17.835 15.9925 -17.75 15.3125 C-16.43450635 10.05052541 -14.20135816 4.88048759 -10 1.3125 C-6.5295979 0.1556993 -3.65645618 0.07236736 0 0 Z " fill="#549051" transform="translate(45,18.6875)"/>
<path d="M0 0 C4.51982733 0.38926743 6.94060728 3.64560468 9.875 6.75 C17.93032222 15.54626649 17.93032222 15.54626649 29 19 C31.9375 20.0625 31.9375 20.0625 34 21 C34 21.99 34 22.98 34 24 C33.34 24 32.68 24 32 24 C32 24.66 32 25.32 32 26 C28.12315913 27.19287411 25.08378077 28 21 28 C21.66 28.99 22.32 29.98 23 31 C23 32.32 23 33.64 23 35 C17.06 35.495 17.06 35.495 11 36 C10.67 37.65 10.34 39.3 10 41 C8.3125 43.8125 8.3125 43.8125 6 46 C2.8125 46.375 2.8125 46.375 0 46 C-0.495 45.505 -0.495 45.505 -1 45 C-1 43.25 -1 41.5 -1 39.75 C-1.59735588 31.15013512 -6.72014458 24.17706414 -12.7890625 18.25390625 C-14 17 -14 17 -14 15 C-15.32 14.34 -16.64 13.68 -18 13 C-14.67465243 11.89155081 -12.37817425 12.15545644 -9 13 C-7.79371992 10.66785852 -6.8345262 8.50357861 -6 6 C-5.01 5.67 -4.02 5.34 -3 5 C-1.30117552 2.50240018 -1.30117552 2.50240018 0 0 Z " fill="#806954" transform="translate(65,55)"/>
<path d="M0 0 C6.57142857 5 6.57142857 5 8 10 C5.625 10.125 5.625 10.125 3 10 C-0.00617269 6.99382731 0.40414684 4.17618402 0 0 Z " fill="#C6D8DB" transform="translate(17,81)"/>
<path d="M0 0 C2.62187494 1.04874998 3.79371361 1.64931313 5.25 4.125 C5.4975 4.74375 5.745 5.3625 6 6 C4.35 5.67 2.7 5.34 1 5 C0.67 3.35 0.34 1.7 0 0 Z " fill="#E3EAEB" transform="translate(31,100)"/>
</svg>
